<svg width="82" height="82" viewBox="0 0 82 82" fill="none" xmlns="http://www.w3.org/2000/svg">
<circle cx="41" cy="41" r="41" fill="#16BE7D"/>
<path d="M49.2304 53.4324C46.6211 54.2087 44.3583 55.8574 42.8214 58.1021V52.0545L45.2284 51.6759C45.8426 51.5772 46.4484 51.4327 47.0409 51.2434C47.8454 50.9966 49.7313 50.2397 50.8399 49.1869C52.217 48.0756 53.3278 46.6708 54.0908 45.0752C54.8539 43.4796 55.25 41.7338 55.25 39.9655L50.7716 40.669C49.1736 40.9193 47.6438 41.4937 46.2765 42.357C44.9092 43.2202 43.7334 44.3539 42.8214 45.6883V39.6407L45.2284 39.2621C48.0216 38.8224 50.5659 37.4012 52.4031 35.2543C54.2404 33.1075 55.2499 30.376 55.25 27.5517L50.7716 28.2552C49.1736 28.5055 47.6438 29.08 46.2765 29.9432C44.9092 30.8064 43.7334 31.9401 42.8214 33.2745V29.6207L43.7846 28.6586C45.7263 26.7187 46.8171 24.0879 46.8171 21.3448C46.8171 18.6017 45.7263 15.971 43.7846 14.031L40.75 11L37.7174 14.029C35.7751 15.969 34.684 18.6002 34.684 21.3438C34.684 24.0874 35.7751 26.7186 37.7174 28.6586L38.6786 29.6207V33.2745C37.7666 31.9401 36.5908 30.8064 35.2235 29.9432C33.8562 29.08 32.3264 28.5055 30.7284 28.2552L26.25 27.5517C26.2501 30.376 27.2596 33.1075 29.0969 35.2543C30.9341 37.4012 33.4784 38.8224 36.2716 39.2621L38.6786 39.6407V45.6883C37.7666 44.3539 36.5908 43.2202 35.2235 42.357C33.8562 41.4937 32.3264 40.9193 30.7284 40.669L26.25 39.9655C26.2501 42.7898 27.2596 45.5213 29.0969 47.6681C30.9341 49.815 33.4784 51.2362 36.2716 51.6759L38.6786 52.0545V58.1021C37.7666 56.7677 36.5908 55.634 35.2235 54.7708C33.8562 53.9075 32.3264 53.3331 30.7284 53.0828L26.25 52.3793C26.2501 55.2036 27.2596 57.9351 29.0969 60.0819C30.9341 62.2288 33.4784 63.65 36.2716 64.0897L38.6786 64.4683V71H42.8214V64.4683C42.8214 64.7931 44.4007 64.2245 45.2284 64.0897C47.0325 63.8062 48.7467 63.1109 50.2377 62.0576C51.7287 61.0044 52.9562 59.6217 53.8249 58.0172C54.213 57.2021 55.0414 54.9332 55.25 52.3793C54.5775 52.3917 52.432 52.6197 49.2304 53.4324Z" fill="white"/>
<path d="M12 70.5L70.5 12" stroke="white" stroke-width="2"/>
</svg>
