<svg width="82" height="82" viewBox="0 0 82 82" fill="none" xmlns="http://www.w3.org/2000/svg">
<circle cx="41" cy="41" r="41" fill="#16BE7D"/>
<path d="M11.75 70.5L28 54.25M70.25 12L42 40.25" stroke="white" stroke-width="2"/>
<path d="M51.7361 30.8721C52.4491 31.5775 53.3148 31.9302 54.3333 31.9302C55.3519 31.9302 56.2176 31.5775 56.9306 30.8721C57.6435 30.1667 58 29.3101 58 28.3023C58 27.5364 57.6639 26.6496 56.9917 25.6419C56.3194 24.6341 55.7389 23.8481 55.25 23.2837C55.0056 23.0016 54.7 22.8605 54.3333 22.8605C53.9667 22.8605 53.6611 23.0016 53.4167 23.2837C52.9278 23.8481 52.3472 24.6341 51.675 25.6419C51.0028 26.6496 50.6667 27.5364 50.6667 28.3023C50.6667 29.3101 51.0231 30.1667 51.7361 30.8721Z" fill="white"/>
<path fill-rule="evenodd" clip-rule="evenodd" d="M45.7778 31.2075C46.9489 31.8386 48.0333 32.6361 48.9933 33.5859C51.6292 36.194 53.1111 39.7302 53.1111 43.4186V55.5116V55.6275C53.1112 57.8054 53.1112 59.6216 52.9154 61.0621C52.7088 62.5802 52.2548 63.9501 51.1417 65.0514C50.0286 66.1528 48.6441 66.602 47.1098 66.8063C45.6539 67.0001 43.8183 67.0001 41.6171 67H41.5H36.6111H36.494C34.2929 67.0001 32.4572 67.0001 31.0013 66.8063C29.467 66.602 28.0825 66.1528 26.9694 65.0514C25.8563 63.9501 25.4023 62.5802 25.1958 61.0621C24.9999 59.6216 24.9999 57.8053 25 55.6273L25 55.5116V43.4186C25 39.7302 26.4819 36.194 29.1178 33.5859C30.0778 32.6361 31.1622 31.8386 32.3333 31.2075V28.907L32.3333 28.7769C32.3331 27.7384 32.333 26.7865 32.4384 26.0113C32.5553 25.1512 32.8313 24.2431 33.5866 23.4958C34.3418 22.7486 35.2597 22.4754 36.1289 22.3597C36.4632 22.3153 36.8301 22.2918 37.2222 22.2771V18.6279H34.1667C33.1541 18.6279 32.3333 17.8158 32.3333 16.814C32.3333 15.8121 33.1541 15 34.1667 15H47.4225C50.3716 15 52.8127 16.1654 54.8776 17.8249C55.6635 18.4564 55.7832 19.5981 55.145 20.3757C54.5066 21.1533 53.3528 21.2718 52.5668 20.6403C50.9602 19.3491 49.3085 18.6279 47.4225 18.6279H40.8889V22.2771C41.2811 22.2918 41.648 22.3153 41.9822 22.3597C42.8514 22.4754 43.7693 22.7486 44.5245 23.4958C45.2798 24.2431 45.5558 25.1512 45.6728 26.0113C45.7782 26.7865 45.778 27.7384 45.7778 28.7768L45.7778 28.907V31.2075ZM43.15 58.3863L46.0571 57.0488C46.354 56.9032 46.5853 56.6985 46.7512 56.4347C46.9171 56.1708 47 55.8751 47 55.5476V53.5551C47 53.1729 46.8821 52.8363 46.6464 52.5451C46.4107 52.254 46.1183 52.0629 45.769 51.9719L43.019 51.3169C42.7746 51.2623 42.5433 51.2668 42.325 51.3305C42.1067 51.3942 41.9016 51.4988 41.7095 51.6444L40.269 52.8454C40.077 52.991 39.9286 53.1775 39.8238 53.4049C39.719 53.6324 39.6667 53.8735 39.6667 54.1283V55.8205C39.6667 56.0753 39.719 56.3164 39.8238 56.5439C39.9286 56.7713 40.077 56.9578 40.269 57.1034L41.5524 58.1679C41.7968 58.3681 42.0587 58.4864 42.3381 58.5228C42.6175 58.5591 42.8881 58.5137 43.15 58.3863ZM39.7365 50.4922L35.0921 52.3689C34.7661 52.4869 34.4344 52.5282 34.0968 52.4928C33.7593 52.4574 33.4508 52.3453 33.1714 52.1564L30.8317 50.5984C30.5291 50.4096 30.2963 50.1558 30.1333 49.8372C29.9704 49.5185 29.8889 49.1821 29.8889 48.828V45.4288C29.8889 45.0747 29.9704 44.7383 30.1333 44.4196C30.2963 44.101 30.5291 43.8472 30.8317 43.6583L33.346 41.9587C33.5788 41.7935 33.8291 41.6873 34.0968 41.6401C34.3645 41.5928 34.6381 41.5928 34.9175 41.6401L39.3873 42.5253C39.8762 42.6433 40.2778 42.8912 40.5921 43.2689C40.9064 43.6465 41.0635 44.0951 41.0635 44.6144V48.5093C41.0635 48.9578 40.9413 49.3591 40.6968 49.7132C40.4524 50.0673 40.1323 50.327 39.7365 50.4922Z" fill="white"/>
</svg>
